<svg width="900" height="700" viewBox="0 0 900 700" fill="none" xmlns="http://www.w3.org/2000/svg">
  <rect width="900" height="700" rx="40" fill="#F4F8FF"/>
  <rect x="220" y="118" width="460" height="500" rx="30" fill="white" stroke="#D8E4FF" stroke-width="4"/>
  <rect x="270" y="170" width="360" height="44" rx="12" fill="#EAF2FF"/>
  <rect x="270" y="242" width="154" height="18" rx="9" fill="#D9E7FF"/>
  <rect x="270" y="270" width="360" height="20" rx="10" fill="#EEF4FF"/>
  <rect x="270" y="336" width="154" height="18" rx="9" fill="#D9E7FF"/>
  <rect x="270" y="364" width="360" height="20" rx="10" fill="#EEF4FF"/>
  <rect x="270" y="430" width="154" height="18" rx="9" fill="#D9E7FF"/>
  <rect x="270" y="458" width="360" height="20" rx="10" fill="#EEF4FF"/>
  <rect x="326" y="514" width="248" height="56" rx="28" fill="#0B4EA2"/>
  <text x="450" y="549" text-anchor="middle" font-family="Arial, sans-serif" font-size="26" font-weight="700" fill="white">Admission Form</text>
  <circle cx="676" cy="234" r="64" fill="#FFD23F"/>
  <circle cx="676" cy="234" r="34" fill="#FFF6D6"/>
  <path d="M650 234L668 252L704 216" stroke="#0B4EA2" stroke-width="10" stroke-linecap="round" stroke-linejoin="round"/>
  <text x="450" y="640" text-anchor="middle" font-family="Arial, sans-serif" font-size="28" font-weight="700" fill="#0B4EA2">Apply with Confidence</text>
</svg>
