<svg width="900" height="700" viewBox="0 0 900 700" fill="none" xmlns="http://www.w3.org/2000/svg">
  <rect width="900" height="700" rx="40" fill="#F3F7FF"/>
  <path d="M84 530C190 424 278 386 412 386C546 386 632 426 742 530" stroke="#D9E7FF" stroke-width="24" stroke-linecap="round"/>
  <rect x="164" y="214" width="572" height="260" rx="30" fill="white" stroke="#D8E4FF" stroke-width="4"/>
  <rect x="206" y="252" width="108" height="130" rx="18" fill="#EAF2FF"/>
  <rect x="334" y="252" width="108" height="130" rx="18" fill="#F3F7FF"/>
  <rect x="462" y="252" width="108" height="130" rx="18" fill="#EAF2FF"/>
  <rect x="590" y="252" width="108" height="130" rx="18" fill="#F3F7FF"/>
  <rect x="186" y="198" width="528" height="34" rx="17" fill="#0B4EA2"/>
  <circle cx="240" cy="215" r="8" fill="#FFD23F"/>
  <circle cx="276" cy="215" r="8" fill="#FFD23F"/>
  <circle cx="312" cy="215" r="8" fill="#FFD23F"/>
  <rect x="282" y="432" width="336" height="84" rx="24" fill="#0B4EA2"/>
  <rect x="310" y="454" width="280" height="16" rx="8" fill="#DCEAFF"/>
  <rect x="310" y="482" width="180" height="12" rx="6" fill="#DCEAFF"/>
  <path d="M100 610C220 560 320 542 452 542C584 542 684 560 804 610" stroke="#FFD23F" stroke-width="18" stroke-linecap="round"/>
  <text x="450" y="612" text-anchor="middle" font-family="Arial, sans-serif" font-size="28" font-weight="700" fill="#0B4EA2">SSP School Campus</text>
</svg>
