<svg width="900" height="700" viewBox="0 0 900 700" fill="none" xmlns="http://www.w3.org/2000/svg">
  <rect width="900" height="700" rx="40" fill="#F4F8FF"/>
  <circle cx="300" cy="266" r="66" fill="#DDEBFF"/>
  <circle cx="300" cy="246" r="32" fill="#0B4EA2"/>
  <path d="M252 448C252 390 272 356 300 356C328 356 348 390 348 448V476H252V448Z" fill="#083B7A"/>
  <circle cx="534" cy="266" r="66" fill="#EAF2FF"/>
  <circle cx="534" cy="246" r="32" fill="#FFD23F"/>
  <path d="M486 448C486 390 506 356 534 356C562 356 582 390 582 448V476H486V448Z" fill="#0B4EA2"/>
  <rect x="204" y="504" width="492" height="58" rx="29" fill="#FFFFFF" stroke="#D8E4FF" stroke-width="4"/>
  <rect x="246" y="522" width="108" height="14" rx="7" fill="#D9E7FF"/>
  <rect x="388" y="522" width="108" height="14" rx="7" fill="#D9E7FF"/>
  <rect x="530" y="522" width="108" height="14" rx="7" fill="#D9E7FF"/>
  <text x="450" y="640" text-anchor="middle" font-family="Arial, sans-serif" font-size="28" font-weight="700" fill="#0B4EA2">Student Life</text>
</svg>
